<?xml version="1.0" encoding="iso-8859-1"?>
<!-- Generator: Adobe Illustrator 19.0.0, SVG Export Plug-In . SVG Version: 6.00 Build 0)  -->
<svg version="1.1" id="Capa_1" xmlns="http://www.w3.org/2000/svg" xmlns:xlink="http://www.w3.org/1999/xlink" x="0px" y="0px"
	 viewBox="0 0 480 480" style="enable-background:new 0 0 480 480;" xml:space="preserve">
<path id="XMLID_1423_" d="M110,200.001v70c0,5.523-4.477,10-10,10s-10-4.477-10-10v-70c0-5.523,4.477-10,10-10
	S110,194.478,110,200.001z M480,470c0,5.523-4.477,10-10,10H10c-5.523,0-10-4.477-10-10c0-5.523,4.477-10,10-10h20V140.001
	c0-5.523,4.477-10,10-10h50v-70c0-5.523,4.477-10,10-10h80.444c-0.943-2.226-1.058-4.745-0.273-7.083
	c1.023-3.049,3.45-5.419,6.521-6.371l28.149-8.72l17.45-23.747c1.904-2.592,4.902-4.138,8.154-4.078
	c3.216,0.031,6.22,1.606,8.075,4.233l16.992,24.077l27.977,9.258c3.053,1.01,5.434,3.427,6.398,6.495
	c0.615,1.957,0.606,4.026,0.02,5.937H380c5.523,0,10,4.477,10,10v70h50c5.523,0,10,4.477,10,10V460h20
	C475.523,460,480,464.477,480,470z M205.875,51.542l0.604,0.841c1.231,1.049,2.206,2.391,2.814,3.918l7.595,10.573
	c1.249,1.738,1.907,3.832,1.877,5.972l-0.26,18.877l17.986-5.737c0.989-0.315,2.014-0.473,3.039-0.473
	c1.089,0,2.177,0.178,3.221,0.533l17.873,6.081l0.102-18.879c0.012-2.14,0.71-4.22,1.992-5.935l7.76-10.377
	c0.618-1.92,1.8-3.587,3.352-4.806l-17.729-5.867c-2.032-0.672-3.794-1.979-5.029-3.728l-10.886-15.425l-11.179,15.213
	c-1.267,1.725-3.055,2.998-5.099,3.631L205.875,51.542z M200,385c0-24.813-20.187-45-45-45s-45,20.187-45,45v75h90V385z M370,385
	c0-24.813-20.187-45-45-45s-45,20.187-45,45v75h90V385z M430,150.001h-50c-5.523,0-10-4.477-10-10v-70h-84.318l-4.974,6.651
	l-0.159,29.469c-0.018,3.216-1.58,6.227-4.2,8.092c-2.619,1.865-5.976,2.358-9.021,1.321l-27.899-9.492l-28.075,8.955
	c-3.064,0.978-6.411,0.421-8.994-1.493c-2.583-1.915-4.088-4.956-4.044-8.171l0.405-29.466l-4.213-5.866H110v70
	c0,5.523-4.477,10-10,10H50V460h40v-75c0-35.841,29.159-65,65-65s65,29.159,65,65v75h40v-75c0-35.841,29.159-65,65-65
	s65,29.159,65,65v75h40V150.001z M370,200.001v70c0,5.523,4.477,10,10,10s10-4.477,10-10v-70c0-5.523-4.477-10-10-10
	S370,194.478,370,200.001z M310,150.001c-5.523,0-10,4.477-10,10v100c0,5.523,4.477,10,10,10s10-4.477,10-10v-100
	C320,154.478,315.523,150.001,310,150.001z M240,150.001c-5.523,0-10,4.477-10,10v100c0,5.523,4.477,10,10,10s10-4.477,10-10v-100
	C250,154.478,245.523,150.001,240,150.001z M170,150.001c-5.523,0-10,4.477-10,10v100c0,5.523,4.477,10,10,10s10-4.477,10-10v-100
	C180,154.478,175.523,150.001,170,150.001z"/>
<g>
</g>
<g>
</g>
<g>
</g>
<g>
</g>
<g>
</g>
<g>
</g>
<g>
</g>
<g>
</g>
<g>
</g>
<g>
</g>
<g>
</g>
<g>
</g>
<g>
</g>
<g>
</g>
<g>
</g>
</svg>
